<svg width="146" height="141" viewBox="0 0 146 141" fill="none" xmlns="http://www.w3.org/2000/svg">
<g clip-path="url(#clip0_5_68)">
<path d="M-4.30256 100.113C-4.29192 100.168 -4.27515 100.222 -4.25256 100.273C-4.24256 100.303 -4.23257 100.343 -4.22257 100.373L7.18576 120.13L7.21575 120.16C7.23575 120.19 7.25575 120.22 7.28574 120.26C7.32435 120.302 7.36801 120.339 7.41572 120.37C7.44572 120.39 7.46572 120.42 7.49571 120.44C7.50745 120.448 7.52161 120.452 7.53571 120.45C7.6489 120.514 7.77598 120.548 7.90565 120.55H53.039L64.2074 139.887L64.2374 139.917C64.2574 139.947 64.2774 139.977 64.3074 140.017C64.346 140.059 64.3896 140.096 64.4374 140.127C64.4674 140.147 64.4873 140.177 64.5173 140.197C64.5291 140.205 64.5432 140.209 64.5573 140.207C64.6705 140.271 64.7976 140.305 64.9273 140.307H133.367C133.5 140.305 133.63 140.271 133.747 140.207L133.837 140.147C133.922 140.091 133.997 140.02 134.057 139.937C134.067 139.917 134.097 139.907 134.107 139.887L145.515 120.13C145.525 120.11 145.525 120.1 145.535 120.08C145.553 120.049 145.566 120.015 145.575 119.98C145.585 119.94 145.595 119.91 145.605 119.87C145.614 119.834 145.617 119.797 145.615 119.76C145.615 119.74 145.625 119.73 145.625 119.71C145.625 119.69 145.615 119.68 145.615 119.66C145.615 119.62 145.605 119.59 145.605 119.55C145.605 119.51 145.585 119.48 145.575 119.44C145.564 119.406 145.55 119.373 145.535 119.34C145.525 119.32 145.525 119.31 145.515 119.29L122.949 80.2062L134.107 60.869C134.117 60.849 134.117 60.839 134.127 60.819C134.145 60.7875 134.158 60.7539 134.167 60.719C134.177 60.679 134.187 60.649 134.197 60.609C134.205 60.573 134.209 60.536 134.207 60.499C134.207 60.479 134.217 60.469 134.217 60.449C134.217 60.4291 134.207 60.4191 134.207 60.3991C134.207 60.3591 134.197 60.3291 134.197 60.2891C134.197 60.2491 134.177 60.2191 134.167 60.1791C134.156 60.1451 134.142 60.1117 134.127 60.0791C134.117 60.0591 134.117 60.0491 134.107 60.0291L99.9022 0.747808C99.8822 0.717812 99.8522 0.697815 99.8322 0.66782C99.798 0.622445 99.7613 0.579048 99.7222 0.537839C99.6813 0.504506 99.6378 0.474419 99.5922 0.447852C99.5487 0.418617 99.5017 0.395094 99.4522 0.377862C99.3937 0.358733 99.3334 0.345338 99.2722 0.337868C99.2422 0.337868 99.2122 0.317871 99.1723 0.317871H76.3556C76.3356 0.317871 76.3256 0.32787 76.3056 0.32787C76.2656 0.32787 76.2356 0.337868 76.1956 0.337868L76.0757 0.367864C76.0457 0.377862 76.0057 0.397859 75.9757 0.407858C75.9457 0.417856 75.9457 0.417856 75.9257 0.427855C75.9143 0.440205 75.9007 0.450371 75.8857 0.457851C75.8533 0.478 75.8232 0.501456 75.7957 0.52784C75.7666 0.551924 75.7398 0.578706 75.7157 0.607829C75.6957 0.637824 75.6657 0.66782 75.6457 0.697815C75.6334 0.709209 75.6232 0.722763 75.6157 0.737809L53.049 39.8321H30.7323C30.7123 39.8321 30.7023 39.8421 30.6823 39.8421C30.6423 39.8421 30.6123 39.8521 30.5723 39.8521C30.5323 39.8521 30.4923 39.8721 30.4623 39.8821C30.4283 39.8937 30.395 39.907 30.3624 39.9221C30.3424 39.9321 30.3324 39.9321 30.3124 39.9421C30.2924 39.9521 30.2924 39.9621 30.2724 39.9721C30.24 39.9922 30.2099 40.0157 30.1824 40.042C30.1533 40.0661 30.1265 40.0929 30.1024 40.122C30.0824 40.152 30.0524 40.182 30.0324 40.212C30.0201 40.2234 30.0099 40.237 30.0024 40.252L-4.21257 99.5333C-4.22711 99.5651 -4.2372 99.5988 -4.24256 99.6333C-4.26375 99.6851 -4.28048 99.7386 -4.29256 99.7933C-4.30843 99.845 -4.31519 99.8992 -4.31255 99.9533C-4.31421 100.007 -4.31086 100.06 -4.30256 100.113ZM98.6823 2.01762L131.927 59.5992H111.071L77.8154 2.01762H98.6823ZM110.091 99.1134H89.2237L111.061 61.2789H131.927L110.091 99.1134ZM76.3556 2.8575L109.601 60.439L87.7639 98.2735L77.3355 80.1962L88.5038 60.859C88.5138 60.839 88.5138 60.829 88.5238 60.809C88.5414 60.7775 88.5548 60.7439 88.5638 60.709C88.5738 60.669 88.5838 60.639 88.5938 60.599C88.6021 60.563 88.6055 60.526 88.6038 60.489C88.6038 60.469 88.6138 60.459 88.6138 60.439C88.6138 60.4191 88.6038 60.4091 88.6038 60.3891C88.6038 60.3491 88.5938 60.3191 88.5938 60.2791C88.5938 60.2391 88.5738 60.2091 88.5638 60.1691C88.5522 60.1351 88.5389 60.1017 88.5238 60.0691C88.5138 60.0491 88.5138 60.0391 88.5038 60.0191L77.0855 40.262C77.0655 40.232 77.0355 40.212 77.0155 40.182C76.9813 40.1366 76.9446 40.0933 76.9055 40.052C76.8646 40.0187 76.8211 39.9886 76.7755 39.9621C76.731 39.9348 76.6841 39.9113 76.6356 39.8921C76.581 39.8724 76.5235 39.8623 76.4656 39.8621C76.4356 39.8621 76.3956 39.8421 76.3656 39.8421H55.0087L76.3556 2.8575ZM53.549 41.5318H75.8757L86.3141 59.5992H42.6306L32.1921 41.5318H53.549ZM30.7323 42.3717L41.1608 60.439L7.91565 118.021L-2.51282 99.9533L30.7323 42.3717ZM9.38544 118.86L42.6306 61.2789H86.3141L75.8757 79.3563H53.549C53.529 79.3563 53.519 79.3663 53.499 79.3663C53.459 79.3663 53.429 79.3763 53.389 79.3763L53.269 79.4063C53.239 79.4163 53.199 79.4363 53.169 79.4463C53.139 79.4563 53.139 79.4563 53.119 79.4663C53.1076 79.4786 53.0941 79.4888 53.079 79.4963C53.0467 79.5164 53.0165 79.5399 52.989 79.5662C52.9599 79.5903 52.9331 79.6171 52.909 79.6462C52.889 79.6762 52.8591 79.7062 52.8391 79.7362C52.8291 79.7462 52.8091 79.7562 52.8091 79.7762L41.4007 99.5333C41.3862 99.5651 41.3761 99.5988 41.3707 99.6333C41.3496 99.6851 41.3328 99.7386 41.3207 99.7933C41.3121 99.8461 41.3088 99.8997 41.3108 99.9533C41.3091 100.007 41.3124 100.06 41.3207 100.113C41.3314 100.168 41.3481 100.222 41.3707 100.273C41.3807 100.303 41.3907 100.343 41.4007 100.373L52.0792 118.86H9.38544ZM132.907 138.618H66.4171L76.8455 120.55H143.336L132.907 138.618ZM64.9573 137.778L43.1205 99.9533L53.559 81.8759L75.3958 119.7L64.9573 137.778ZM143.336 118.86H76.8455L55.0087 81.036H75.8757L87.044 100.373L87.074 100.403C87.0939 100.439 87.1174 100.472 87.144 100.503C87.1826 100.545 87.2263 100.582 87.274 100.613C87.304 100.633 87.324 100.663 87.354 100.683C87.3657 100.691 87.3799 100.695 87.394 100.693C87.5072 100.756 87.6343 100.791 87.7639 100.793H110.581C110.713 100.791 110.844 100.757 110.961 100.693L111.051 100.633C111.135 100.576 111.21 100.505 111.27 100.423C111.28 100.403 111.31 100.393 111.32 100.373L121.999 81.8759L143.336 118.86Z" fill="white"/>
</g>
<defs>
<clipPath id="clip0_5_68">
<rect width="149.938" height="140" fill="white" transform="translate(-4.3125 0.3125)"/>
</clipPath>
</defs>
</svg>
